<svg height="20" viewBox="0 0 89 20" width="89" xmlns="http://www.w3.org/2000/svg"><path d="m9.51172779.159936c2.14783991 0 3.93295991.54319998 5.36959991 1.64335996 1.4364799 1.09967998 2.4131199 2.54399994 2.9428799 4.3593599l-3.3891199.83455998c-1.03216-2.38463994-2.67776-3.57743992-4.92335991-3.57743992-1.68719996 0-3.06815993.54303999-4.14223991 1.64319997-1.05983998 1.09967997-1.59007996 2.70303994-1.59007996 4.80975989 0 2.17327992.51631998 3.78959992 1.56239996 4.86287992 1.04607998 1.0732799 2.41279995 1.6035199 4.08639991 1.6035199 1.35296001 0 2.39903991-.35792 3.15199991-1.0732799.75328-.71552 1.19936-1.56368 1.33904-2.54416h-3.7238399v-2.92831992h7.3219198v9.57999982h-3.1239999l-.30688-2.04032c-1.04592 1.49728-2.664 2.25232-4.85343991 2.25232-2.56623994 0-4.74191989-.84816-6.54143985-2.54432-1.79903996-1.7089599-2.69151994-4.0942399-2.69151994-7.16831982 0-3.07391993.92063998-5.45919988 2.77519994-7.15503984 1.85503996-1.70959996 4.10047991-2.55775994 6.73647985-2.55775994zm16.52993561 5.31353588c2.28736 0 4.1281599.92783998 5.1603199 2.27903995 1.03184 1.35167997 1.54784 2.92879997 1.54784 4.47887987v1.3912h-9.9161598c.04176.83504.34864 1.55056.94816 2.1734399.6.60928 1.4227199.91408 2.4550399.91408 1.46416 0 2.636-.7024 3.4863999-2.1070399l2.85936.99408c-1.21328 2.6631999-3.4032 3.9881599-6.5409599 3.9881599-2.3572799 0-4.2820799-.92736-5.3419199-2.31856-1.0460799-1.39152-1.5761599-3.0343999-1.5761599-4.7305599 0-1.6959999.53008-3.35263991 1.5761599-4.73039987 1.05984-1.39151997 2.98464-2.33231995 5.3419199-2.33231995zm13.1720957-5.31342388v5.53871987h3.7937599v2.87551994h-3.7937599v5.90975989c0 1.6297599.61376 2.2260799 1.88304 2.2260799.47408 0 .9344-.10608 1.36672-.31824l.8228799 2.71664c-.7392.3312-1.5201599.4768-2.3430399.4768-3.3054399-.01312-5.2719999-1.70928-5.2719999-5.0484799v-5.96255989h-2.2313599v-2.87551994h2.2313599v-3.41855992zm16.6086557 5.31348788c4.0302399 0 6.0526398 1.90815996 6.0526398 5.73743982v8.1625599h-2.9148799l-.36256-1.736c-1.1296 1.29856-2.60816 1.94784-4.4350399 1.94784-1.26928 0-2.31536-.35792-3.1382399-1.07328-.82272-.72864-1.22752-1.74896-1.22752-3.0739199 0-1.36464.57216-2.45136 1.7017599-3.25952 1.1296-.80864 2.608-1.2191999 4.4350399-1.2191999h2.39888v-.59648c0-1.33824-.83664-2.01407999-2.5100799-2.00063999-1.26944 0-2.1064.51679999-2.48272 1.56367997l-2.9988799-.64927999c.23712-1.13951997.83696-2.05391995 1.8270399-2.75647994.9904-.70191998 2.20368-1.04671997 3.65456-1.04671997zm11.0011997-5.31358388v6.78447984c.3208-.39775999.80912-.74191998 1.45024-1.03343997.65568-.29152 1.3251199-.43759999 2.0366399-.43759999 2.10592 0 3.7375999.63631998 4.8673599 1.92143995 1.1296 1.27199998 1.7016 2.98159997 1.7016 5.14143987 0 2.15952-.572 3.8691199-1.7016 5.1411199-1.12976 1.272-2.7614399 1.908-4.8673599 1.908-.82288 0-1.5481599-.17216-2.1900799-.50336-.64112-.3448-1.0736-.71568-1.2968-1.11312v1.40448h-3.5423999v-19.2134396zm16.1410254 5.31356788c.94864 0 1.8270399.21231999 2.6222399.62271998.80896.41071999 1.43648.94079998 1.8968 1.60351997l-2.12 1.85487996c-.65568-.79503999-1.4503999-1.19231998-2.3990399-1.19231998-.72496 0-1.31104.41071999-1.31104 1.13951998 0 .51688001.3967706.93056651 1.179551 1.25246091l.2334728.0888125 1.5691908.5209919c.2823703.0916796.4960453.1600546.6443453.2180546l.2304588.096279c.2148408.0948035.4866612.2273096.8154612.407081.46032.252.79472.49024 1.00416.7288.20912.22528.41808.5432.59952.92768.19536.38432.29312.82128.29312 1.28528 0 1.2590399-.47456 2.3452799-1.42256 3.2331199-.93456.88784-2.17584 1.32496-3.6959999 1.32496-1.36672 0-2.55232-.35776-3.5705599-1.09968-1.00416-.72864-1.7152-1.60352-2.13376-2.58416l2.8169599-1.4438399c.572 1.4971199 1.5344 2.2524799 2.88736 2.2524799 1.1228968 0 1.7075767-.4398502 1.7660114-1.3089392l.0048685-.1488207c.0742589-.5961883-.5468179-.9654146-1.2689336-1.2535328l-.634297-.239065c-.1908365-.0709286-.4118093-.1504742-.6628493-.2299622l-.6745766-.236425c-.131881-.0474854-.2512794-.091991-.3572634-.134295-.90688-.35808-1.63168-.8216-2.1481599-1.37808-.51584-.57008-.76672-1.3383999-.76672-2.31903991 0-1.09967998.43216-2.04079996 1.2831999-2.82239994.86448-.78191998 1.96624-1.16607997 3.31904-1.16607997zm-34.669121-5.31351988v19.2134396h-3.5425599v-19.2134396zm10.0369758 13.4624957h-2.37088c-1.6318399 0-2.4545599.58304-2.4545599 1.7624 0 .7287999.53008 1.3252799 1.49216 1.3252799.87872 0 1.6459199-.26496 2.3153599-.78176.68352-.5169599 1.01792-1.2057599 1.01792-2.0407999zm11.4757597-5.26014389c-.9622399 0-1.7571199.37071999-2.3851199 1.09967998-.61328.72896001-.92016 1.74895991-.92016 3.07423991 0 1.31152.30688 2.34528.92016 3.07392.628.7289599 1.42288 1.0999999 2.3851199 1.0999999.97632 0 1.77136-.37104 2.39904-1.1129599.62752-.74208.94816-1.7624.94816-3.06096 0-1.31184-.32064-2.3323199-.94816-3.06127991-.62768-.74191999-1.42272-1.11263998-2.39904-1.11263998zm-43.766591.00008c-.83712 0-1.5343999.25168-2.0921599.75487999-.55808.50367998-.90672 1.11312-1.03232 1.84208h6.2065598c-.4043199-1.73600001-1.4227199-2.61039999-3.0820799-2.59695999z" fill-rule="evenodd"/></svg>
